<?xml version="1.0" encoding="UTF-8"?>
<!DOCTYPE svg PUBLIC "-//W3C//DTD SVG 1.1//EN" "http://www.w3.org/Graphics/SVG/1.1/DTD/svg11.dtd">
<!-- Creator: CorelDRAW X8 -->
<svg xmlns="http://www.w3.org/2000/svg" xml:space="preserve" width="135.687mm" height="120mm" version="1.1" style="shape-rendering:geometricPrecision; text-rendering:geometricPrecision; image-rendering:optimizeQuality; fill-rule:evenodd; clip-rule:evenodd"
viewBox="0 0 13569 12000"
 xmlns:xlink="http://www.w3.org/1999/xlink">
 <defs>
  <style type="text/css">
   <![CDATA[
    .fil4 {fill:#332C2B}
    .fil3 {fill:#298FFC}
    .fil2 {fill:#4FFF03}
    .fil0 {fill:#FF5C00}
    .fil1 {fill:#FF5E00}
   ]]>
  </style>
 </defs>
 <g id="Layer_x0020_1">
  <metadata id="CorelCorpID_0Corel-Layer"/>
  <g id="_1075365920">
   <path class="fil0" d="M9346 870c304,-357 671,-629 1069,-870 -503,545 -1037,1069 -1320,1760 -357,723 -241,1593 -660,2295 -660,1111 -2515,1142 -3228,73 -471,-838 -356,-1865 -796,-2714 -241,-523 -712,-880 -1079,-1320 503,273 985,639 1289,1142 398,629 586,1383 1048,1981 471,649 1540,765 2116,178 713,-713 891,-1781 1561,-2525z"/>
   <path class="fil1" d="M6465 2075c492,-325 1205,272 985,817 -126,440 -723,660 -1080,346 -419,-273 -356,-954 95,-1163z"/>
   <path class="fil2" d="M0 4987c671,189 1341,430 2054,378 943,41 1802,-619 2755,-346 1080,356 1729,1781 1142,2797 -544,818 -1561,1153 -2127,1960 -345,461 -471,1027 -649,1571 -32,-482 52,-974 262,-1404 377,-796 1100,-1351 1498,-2127 356,-702 21,-1707 -744,-1969 -775,-294 -1624,-84 -2431,-200 -628,-62 -1236,-303 -1760,-660zm3688 1446c440,-251 1069,189 975,692 -21,503 -671,817 -1069,503 -451,-273 -388,-1006 94,-1195z"/>
   <path class="fil3" d="M11798 5448c629,11 1205,-251 1771,-471 -388,314 -839,587 -1331,681 -828,178 -1676,-31 -2494,126 -827,125 -1446,1100 -1110,1886 356,932 1226,1550 1603,2472 167,388 262,807 325,1216 -315,-629 -545,-1310 -1027,-1844 -472,-597 -1237,-870 -1708,-1467 -859,-1090 0,-2965 1372,-3060 891,0 1708,461 2599,461zm-2431 975c461,-346 1184,136 1058,691 -73,493 -712,744 -1100,440 -377,-262 -366,-911 42,-1131z"/>
   <path class="fil4" d="M4889 10268l277 0 0 922c0,146 3,241 10,284 12,70 40,126 84,168 45,42 106,63 183,63 79,0 138,-20 178,-60 40,-39 64,-88 72,-146 8,-58 12,-155 12,-289l0 -942 277 0 0 894c0,205 -7,349 -22,433 -15,85 -43,155 -83,214 -40,58 -94,104 -161,138 -68,35 -156,52 -264,52 -131,0 -230,-19 -298,-57 -68,-37 -121,-86 -160,-146 -40,-59 -66,-122 -78,-188 -18,-98 -27,-241 -27,-432l0 -908zm1315 1149l269 -33c16,112 49,194 99,247 50,52 116,79 200,79 90,0 157,-23 202,-71 45,-46 68,-101 68,-163 0,-41 -10,-75 -29,-103 -19,-29 -52,-53 -100,-74 -32,-14 -106,-39 -221,-74 -148,-46 -252,-102 -312,-169 -85,-93 -127,-207 -127,-342 0,-87 20,-167 60,-243 39,-75 96,-133 171,-172 75,-40 164,-60 270,-60 172,0 301,47 388,141 87,94 133,218 137,375l-276 15c-12,-88 -38,-151 -77,-189 -39,-38 -97,-57 -175,-57 -80,0 -144,20 -189,61 -29,26 -44,62 -44,106 0,40 14,75 41,103 35,37 120,75 255,114 134,39 234,80 298,122 65,43 115,100 152,173 36,74 55,164 55,271 0,98 -22,189 -66,274 -44,85 -105,149 -185,190 -80,41 -179,62 -298,62 -174,0 -307,-50 -400,-149 -93,-99 -148,-244 -166,-434zm1656 553l0 -1414 -407 0 0 -288 1090 0 0 288 -406 0 0 1414 -277 0z"/>
  </g>
 </g>
</svg>
